<?xml version="1.0" encoding="UTF-8" standalone="no"?>
<!-- Generator: Adobe Illustrator 16.0.1, SVG Export Plug-In . SVG Version: 6.00 Build 0)  -->

<svg
   xmlns:dc="http://purl.org/dc/elements/1.1/"
   xmlns:cc="http://creativecommons.org/ns#"
   xmlns:rdf="http://www.w3.org/1999/02/22-rdf-syntax-ns#"
   xmlns:svg="http://www.w3.org/2000/svg"
   xmlns="http://www.w3.org/2000/svg"
   xmlns:sodipodi="http://sodipodi.sourceforge.net/DTD/sodipodi-0.dtd"
   xmlns:inkscape="http://www.inkscape.org/namespaces/inkscape"
   version="1.1"
   x="0px"
   y="0px"
   width="35"
   height="35"
   viewBox="0 0 35 35"
   enable-background="new 0 0 230 40"
   xml:space="preserve"
   id="svg3846"
   inkscape:version="0.48.5 r10040"
   sodipodi:docname="favicon.svg"><metadata
     id="metadata3892"><rdf:RDF><cc:Work
         rdf:about=""><dc:format>image/svg+xml</dc:format><dc:type
           rdf:resource="http://purl.org/dc/dcmitype/StillImage" /><dc:title /></cc:Work></rdf:RDF></metadata><defs
     id="defs3890" /><sodipodi:namedview
     pagecolor="#ffffff"
     bordercolor="#666666"
     borderopacity="1"
     objecttolerance="10"
     gridtolerance="10"
     guidetolerance="10"
     inkscape:pageopacity="0"
     inkscape:pageshadow="2"
     inkscape:window-width="1362"
     inkscape:window-height="723"
     id="namedview3888"
     showgrid="false"
     fit-margin-top="0"
     fit-margin-left="0"
     fit-margin-right="0"
     fit-margin-bottom="0"
     inkscape:zoom="7.2144516"
     inkscape:cx="5.8874923"
     inkscape:cy="-2.0783257"
     inkscape:window-x="4"
     inkscape:window-y="0"
     inkscape:window-maximized="1"
     inkscape:current-layer="svg3846" /><rect
     style="fill:#1a1a1a;fill-opacity:1;stroke:#000000;stroke-width:0;stroke-linejoin:miter;stroke-miterlimit:4;stroke-opacity:1;stroke-dasharray:none"
     id="rect3008"
     width="35"
     height="35"
     x="0"
     y="0" /><g
     id="SpecimenRepository"
     display="none"
     style="display:none"
     transform="translate(-25.380929,44.545468)" /><g
     id="g3001"
     transform="matrix(1.0569721,0,0,1.0569721,-1.3994823,-1.7953645)"
     style="fill:#e6e6e6"><path
       id="path3"
       d="M 16.513599,15.363884 H 5.3714338 L 3.2557216,14.163903 c -0.5443482,-0.308725 -1.2358791,-0.117811 -1.5446042,0.426863 -0.308725,0.544348 -0.1174852,1.236205 0.426863,1.54493 l 2.5983807,1.473134 v 11.806609 c 0,1.000909 0.8116268,1.812862 1.8128615,1.812862 1.001562,0 1.8131888,-0.811627 1.8131888,-1.812862 v -4.7823 l 3.4305676,5.712718 c 0,0.001 3.26e-4,0.0017 10e-4,0.0023 0.514976,0.858294 1.628801,1.136669 2.487422,0.620714 0.858295,-0.51563 1.136669,-1.629128 0.621366,-2.487749 l -2.97825,-4.958202 h 6.862768 v 5.892535 c 0,1.000909 0.811953,1.812862 1.813188,1.812862 1.001235,0 1.813515,-0.811627 1.813515,-1.812862 v -5.934307 c 0.263036,-0.09399 0.45297,-0.342992 0.45297,-0.638336 v -4.75913 l 0.0088,-0.0098 -6.36215,-2.709992 z"
       inkscape:connector-curvature="0"
       style="fill:#e6e6e6" /><rect
       id="rect5"
       height="0.9062677"
       width="4.5329704"
       y="12.644426"
       x="29.665089"
       style="fill:#e6e6e6" /><rect
       id="rect7"
       height="0.90627408"
       width="4.5330024"
       transform="matrix(0.86729387,-0.49779648,0.49779648,0.86729387,0,0)"
       y="23.559805"
       x="19.654875"
       style="fill:#e6e6e6" /><rect
       id="rect9"
       height="0.90661019"
       width="4.5327244"
       transform="matrix(0.49659117,-0.86798457,0.86798457,0.49659117,0,0)"
       y="28.142097"
       x="5.482192"
       style="fill:#e6e6e6" /><path
       id="path11"
       d="m 24.679472,13.550696 1.813515,-3.172753 -2.266811,-3.6260498 -4.111003,4.5949768 -2.234503,-0.51563 0.588731,2.355252 -0.99275,1.109582 6.360192,2.709339 3.108788,-3.454717 h -2.266159 z m -2.49297,-1.359565 c -0.3753,0 -0.680109,-0.304156 -0.680109,-0.679782 0,-0.375627 0.304809,-0.679782 0.680109,-0.679782 0.3753,0 0.679782,0.304155 0.679782,0.679782 0,0.3753 -0.304156,0.679782 -0.679782,0.679782 z"
       inkscape:connector-curvature="0"
       style="fill:#e6e6e6" /></g></svg>